<svg width="712" height="642" viewBox="0 0 712 642" fill="none" xmlns="http://www.w3.org/2000/svg">
<path d="M593.573 468.738C592.474 469.591 591.356 470.414 590.22 471.221C546.684 502.113 475.278 502.703 378.962 446.184C324.43 413.721 287.185 433.35 250.417 454.034C249.786 454.392 249.156 454.751 248.518 455.107C209.996 476.812 171.686 498.711 114.224 462.011C52.5538 424.906 32.6272 358.739 48.3592 303.607C48.5504 302.937 48.7516 302.263 48.9567 301.598C59.6994 266.081 85.3627 235.399 124.299 220.435C147.817 211.4 175.239 212.858 199.74 223.442C207.097 226.676 214.717 229.274 222.502 231.203C224.225 231.618 225.91 231.986 227.569 232.299C261.696 238.834 284.378 225.246 303.288 204.988C303.734 204.507 304.179 204.026 304.621 203.535C348.93 154.894 373.152 70.7084 478.83 128.877C575.003 177.096 626.439 258.158 637.6 331.489C637.707 332.224 637.814 332.959 637.914 333.692C640.918 354 640.567 374.443 636.874 394.283C636.667 395.398 636.44 396.503 636.199 397.603C629.873 426.835 615.522 451.811 593.573 468.738Z" fill="white"/>
<path d="M323.481 491.144C331.313 499.561 331.717 511.933 331.717 511.933C331.717 511.933 319.424 510.657 311.593 502.24C303.761 493.822 303.356 481.451 303.356 481.451C303.356 481.451 315.649 482.726 323.481 491.144Z" fill="#327E1A"/>
<path d="M348.136 504.282C339.732 512.127 327.38 512.532 327.38 512.532C327.38 512.532 328.653 500.22 337.058 492.375C345.462 484.531 357.814 484.126 357.814 484.126C357.814 484.126 356.54 496.438 348.136 504.282Z" fill="#327E1A"/>
<path d="M346.048 529.265H315.137C314.544 529.265 313.963 529.098 313.46 528.783C312.957 528.468 312.553 528.017 312.294 527.483L305.564 513.628C305.329 513.145 305.221 512.61 305.25 512.074C305.278 511.538 305.442 511.018 305.727 510.563C306.011 510.108 306.406 509.732 306.875 509.472C307.344 509.212 307.871 509.076 308.407 509.076H352.778C353.314 509.076 353.841 509.212 354.31 509.472C354.779 509.732 355.174 510.108 355.458 510.563C355.742 511.018 355.906 511.538 355.935 512.074C355.963 512.61 355.855 513.145 355.621 513.628L348.891 527.483C348.631 528.017 348.227 528.468 347.724 528.783C347.222 529.098 346.641 529.265 346.048 529.265Z" fill="#201E1E"/>
<path d="M484.866 360.285C499.08 360.285 510.603 348.744 510.603 334.507C510.603 320.27 499.08 308.729 484.866 308.729C470.651 308.729 459.128 320.27 459.128 334.507C459.128 348.744 470.651 360.285 484.866 360.285Z" fill="#E7BDA5"/>
<path d="M465.656 347.396C465.656 347.396 470.505 384.009 463.045 388.118C455.585 392.228 507.433 392.602 507.433 392.602C507.433 392.602 495.87 360.846 501.092 351.132L465.656 347.396Z" fill="#E7BDA5"/>
<path d="M544.498 393.28L540.186 412.946L531.069 454.553L530.796 456.832L527.649 483.211L525.556 500.735L524.153 512.507C515.62 516.899 509.435 519.931 509.435 519.931C509.435 519.931 508.903 517.26 508.046 513.842C502.057 515.641 490.976 518.624 481.586 519.22C485.005 523.037 486.577 526.623 484.445 529.27C478.012 537.249 451.454 520.534 442.165 514.301C441.949 515.794 441.867 517.303 441.921 518.81L434.812 513.334L435.516 500.735L436.702 479.418L438.193 452.685C437.723 451.54 437.329 450.366 437.014 449.169C434.837 441.415 432.194 425.931 430.168 412.946C428.537 402.496 427.312 393.666 427.053 391.787C427.017 391.542 427 391.415 427 391.415L466.35 374C469.147 380.496 482.205 382.448 482.205 382.448C493.024 381.702 501.504 375.988 501.504 375.988L544.498 393.28Z" fill="#6960FB"/>
<path d="M513.215 511.968C513.215 511.968 511.549 512.539 508.84 513.349C502.852 515.147 491.771 518.13 482.38 518.726C474.295 519.245 467.463 517.997 466.214 512.714C465.678 510.443 466.438 508.574 468.093 507.039C473.035 502.45 485.943 500.806 496.181 500.242C499.072 500.084 501.746 500.01 503.972 499.982C507.752 499.933 510.23 500.01 510.23 500.01L510.289 500.242L513.215 511.968Z" fill="#FFB8B8"/>
<path d="M463.455 310.123L458.642 308.194C458.642 308.194 468.704 297.098 482.704 298.063L478.766 293.722C478.766 293.722 488.391 289.862 497.141 299.993C501.74 305.318 507.062 311.578 510.379 318.629H515.533L513.382 323.373L520.91 328.116L513.183 327.264C513.644 329.862 513.714 332.514 513.393 335.133C513.062 337.752 511.727 340.14 509.671 341.792C509.671 341.792 503.703 329.419 503.703 327.49V332.314C503.703 332.314 498.891 327.972 498.891 325.078L496.266 328.455L494.953 323.148L478.766 328.455L481.391 324.113L471.329 325.56L475.267 320.254C475.267 320.254 463.892 326.525 463.455 331.831C463.017 337.138 459.688 342.166 459.688 342.166C459.688 342.166 450.768 317.359 463.455 310.123Z" fill="#262626"/>
<path d="M573.268 483.198C570.647 486.044 564.151 490.332 556.276 494.973C553.346 496.698 550.228 498.475 547.046 500.242C539.455 504.459 531.506 508.637 524.947 512.013C516.414 516.406 510.23 519.438 510.23 519.438C510.23 519.438 509.698 516.767 508.84 513.349C507.692 508.774 505.963 502.86 504.161 500.242C504.098 500.15 504.035 500.066 503.972 499.982C503.447 499.292 502.918 498.888 502.397 498.888L528.444 482.717L539.7 475.728L531.59 456.338L521.419 432.017L527.558 412.453L533.729 392.787H545.293C545.293 392.787 549.122 401.158 554.018 412.831C554.75 414.577 555.506 416.397 556.276 418.276C566.349 442.814 578.907 477.081 573.268 483.198Z" fill="#6960FB"/>
<path d="M485.24 528.777C478.807 536.755 452.249 520.041 442.96 513.808C440.937 512.451 439.733 511.592 439.733 511.592L448.231 500.242L450.922 496.648C450.922 496.648 453.33 497.928 456.89 500.01C457.019 500.087 457.149 500.164 457.282 500.242C460.351 502.047 464.205 504.406 468.093 507.039C473.459 510.674 478.884 514.821 482.38 518.726C485.8 522.544 487.371 526.13 485.24 528.777Z" fill="#FFB8B8"/>
<path d="M456.89 500.01C455.94 500.007 454.992 500.084 454.055 500.242C446.008 501.626 443.635 508.921 442.96 513.808C442.744 515.3 442.662 516.809 442.715 518.316L435.606 512.841L433.016 510.846C426.783 508.669 421.228 504.802 416.412 500.242C412.234 496.215 408.487 491.764 405.23 486.959C401.986 482.224 399.094 477.256 396.578 472.096C395.876 470.656 395.498 469.079 395.472 467.477C395.446 465.874 395.772 464.286 396.427 462.824L405.23 443.175L418.096 414.458C418.19 413.774 418.294 413.106 418.407 412.453C420.959 397.8 427.794 391.294 427.794 391.294H433.016L436.509 412.453L440.849 438.741L437.808 448.675L430.78 471.619L437.496 478.925L456.89 500.01Z" fill="#6960FB"/>
<path d="M462.8 438.762L467.264 443.978C468.923 443.661 470.655 443.289 472.439 442.871L471.157 438.762L474.292 442.425C493.191 437.77 516.616 428.718 516.616 428.718C516.616 428.718 491.326 430.575 472.443 426.443C464.089 424.615 455.493 428.763 452.064 436.61C450.071 441.171 450.384 445.123 457.452 445.123C459.84 445.082 462.222 444.858 464.575 444.452L462.8 438.762Z" fill="#E5E5E5"/>
<path d="M564.571 524.5V526.628C564.572 527.212 564.464 527.791 564.252 528.335C564.158 528.577 564.045 528.812 563.913 529.036C563.496 529.737 562.904 530.318 562.195 530.721C561.486 531.124 560.685 531.336 559.87 531.335H403.578C402.763 531.336 401.962 531.124 401.253 530.721C400.545 530.318 399.953 529.737 399.535 529.036C399.404 528.812 399.29 528.577 399.196 528.335C398.984 527.791 398.876 527.212 398.877 526.628V524.5C398.877 523.881 398.999 523.269 399.235 522.698C399.471 522.127 399.817 521.608 400.254 521.17C400.69 520.733 401.209 520.386 401.779 520.15C402.349 519.913 402.961 519.792 403.578 519.792H412.587V518.8C412.587 518.774 412.592 518.748 412.602 518.725C412.612 518.701 412.626 518.679 412.644 518.661C412.662 518.643 412.684 518.628 412.708 518.618C412.732 518.608 412.757 518.603 412.783 518.603H417.483C417.509 518.603 417.535 518.608 417.559 518.618C417.582 518.628 417.604 518.643 417.622 518.661C417.64 518.679 417.655 518.701 417.665 518.725C417.674 518.748 417.679 518.774 417.679 518.8V519.792H420.616V518.8C420.616 518.774 420.621 518.748 420.631 518.725C420.641 518.701 420.655 518.679 420.673 518.661C420.691 518.643 420.713 518.628 420.737 518.618C420.761 518.608 420.786 518.603 420.812 518.603H425.512C425.538 518.603 425.564 518.608 425.588 518.618C425.611 518.628 425.633 518.643 425.651 518.661C425.669 518.679 425.684 518.701 425.694 518.725C425.703 518.748 425.709 518.774 425.708 518.8V519.792H428.648V518.8C428.648 518.774 428.653 518.748 428.663 518.725C428.673 518.701 428.688 518.679 428.706 518.661C428.724 518.643 428.746 518.628 428.769 518.618C428.793 518.608 428.819 518.603 428.844 518.603H433.545C433.571 518.603 433.596 518.608 433.62 518.618C433.644 518.628 433.665 518.643 433.684 518.661C433.702 518.679 433.716 518.701 433.726 518.725C433.736 518.748 433.741 518.774 433.741 518.8V519.792H436.677V518.8C436.677 518.774 436.682 518.748 436.692 518.725C436.702 518.701 436.717 518.679 436.735 518.661C436.753 518.643 436.775 518.628 436.798 518.618C436.822 518.608 436.848 518.603 436.873 518.603H441.574C441.6 518.603 441.625 518.608 441.649 518.618C441.673 518.628 441.694 518.643 441.713 518.661C441.731 518.679 441.745 518.701 441.755 518.725C441.765 518.748 441.77 518.774 441.77 518.8V519.792H444.706V518.8C444.706 518.774 444.711 518.748 444.721 518.725C444.731 518.701 444.746 518.679 444.764 518.661C444.782 518.643 444.804 518.628 444.827 518.618C444.851 518.608 444.877 518.603 444.902 518.603H449.603C449.629 518.603 449.654 518.608 449.678 518.618C449.702 518.628 449.723 518.643 449.742 518.661C449.76 518.679 449.774 518.701 449.784 518.725C449.794 518.748 449.799 518.774 449.799 518.8V519.792H452.739V518.8C452.739 518.774 452.744 518.748 452.754 518.725C452.764 518.701 452.778 518.679 452.796 518.661C452.814 518.643 452.836 518.628 452.86 518.618C452.884 518.608 452.909 518.603 452.935 518.603H457.635C457.661 518.603 457.687 518.608 457.71 518.618C457.734 518.628 457.756 518.643 457.774 518.661C457.792 518.679 457.807 518.701 457.817 518.725C457.826 518.748 457.832 518.774 457.831 518.8V519.792H460.768V518.8C460.768 518.774 460.773 518.748 460.783 518.725C460.793 518.701 460.807 518.679 460.825 518.661C460.843 518.643 460.865 518.628 460.889 518.618C460.913 518.608 460.938 518.603 460.964 518.603H497.784C497.81 518.603 497.835 518.608 497.859 518.618C497.883 518.628 497.904 518.643 497.923 518.661C497.941 518.679 497.955 518.701 497.965 518.725C497.975 518.748 497.98 518.774 497.98 518.8V519.792H500.92V518.8C500.92 518.774 500.925 518.748 500.935 518.725C500.945 518.701 500.959 518.679 500.977 518.661C500.995 518.643 501.017 518.628 501.041 518.618C501.065 518.608 501.09 518.603 501.116 518.603H505.816C505.868 518.604 505.918 518.625 505.954 518.661C505.991 518.698 506.012 518.748 506.012 518.8V519.792H508.949V518.8C508.949 518.774 508.954 518.748 508.964 518.725C508.974 518.701 508.988 518.679 509.006 518.661C509.024 518.643 509.046 518.628 509.07 518.618C509.094 518.608 509.119 518.603 509.145 518.603H513.845C513.871 518.603 513.897 518.608 513.92 518.618C513.944 518.628 513.966 518.643 513.984 518.661C514.002 518.679 514.017 518.701 514.027 518.725C514.036 518.748 514.041 518.774 514.041 518.8V519.792H516.978V518.8C516.978 518.774 516.983 518.748 516.993 518.725C517.003 518.701 517.017 518.679 517.035 518.661C517.053 518.643 517.075 518.628 517.099 518.618C517.123 518.608 517.148 518.603 517.174 518.603H521.874C521.9 518.603 521.926 518.608 521.949 518.618C521.973 518.628 521.995 518.643 522.013 518.661C522.031 518.679 522.046 518.701 522.056 518.725C522.065 518.748 522.07 518.774 522.07 518.8V519.792H525.01V518.8C525.01 518.774 525.015 518.748 525.025 518.725C525.035 518.701 525.05 518.679 525.068 518.661C525.086 518.643 525.108 518.628 525.131 518.618C525.155 518.608 525.181 518.603 525.206 518.603H529.907C529.958 518.604 530.007 518.625 530.044 518.662C530.08 518.699 530.1 518.748 530.099 518.8V519.792H533.039V518.8C533.039 518.774 533.044 518.748 533.054 518.725C533.064 518.701 533.079 518.679 533.097 518.661C533.115 518.643 533.137 518.628 533.16 518.618C533.184 518.608 533.21 518.603 533.235 518.603H537.936C537.962 518.603 537.987 518.608 538.011 518.618C538.035 518.628 538.056 518.643 538.075 518.661C538.093 518.679 538.107 518.701 538.117 518.725C538.127 518.748 538.132 518.774 538.132 518.8V519.792H541.068V518.8C541.068 518.774 541.073 518.748 541.083 518.725C541.093 518.701 541.108 518.679 541.126 518.661C541.144 518.643 541.166 518.628 541.189 518.618C541.213 518.608 541.239 518.603 541.264 518.603H545.965C545.991 518.603 546.016 518.608 546.04 518.618C546.064 518.628 546.085 518.643 546.104 518.661C546.122 518.679 546.136 518.701 546.146 518.725C546.156 518.748 546.161 518.774 546.161 518.8V519.792H559.87C560.488 519.792 561.099 519.913 561.669 520.15C562.24 520.386 562.758 520.733 563.195 521.17C563.631 521.607 563.977 522.127 564.213 522.698C564.45 523.269 564.571 523.881 564.571 524.5Z" fill="#201E1E"/>
<path d="M551.986 434.888H493.731V433.686H467.316V434.888H408.821C408.304 434.888 407.791 434.99 407.313 435.189C406.835 435.387 406.401 435.678 406.035 436.044C405.669 436.411 405.379 436.846 405.181 437.325C404.983 437.804 404.881 438.317 404.881 438.835V518.73C404.881 519.777 405.296 520.781 406.035 521.521C406.774 522.261 407.776 522.677 408.821 522.677H551.986C553.031 522.677 554.034 522.261 554.773 521.521C555.512 520.781 555.927 519.777 555.927 518.73V438.835C555.927 438.317 555.825 437.804 555.627 437.325C555.429 436.846 555.139 436.411 554.773 436.044C554.407 435.678 553.972 435.387 553.494 435.189C553.016 434.99 552.504 434.888 551.986 434.888Z" fill="#262626"/>
<path d="M480.518 471.545C485.351 471.545 489.268 467.622 489.268 462.782C489.268 457.941 485.351 454.018 480.518 454.018C475.686 454.018 471.768 457.941 471.768 462.782C471.768 467.622 475.686 471.545 480.518 471.545Z" stroke="#D0CDE1" stroke-width="2" stroke-miterlimit="10"/>
<path d="M477.718 474.7C482.551 474.7 486.468 470.777 486.468 465.936C486.468 461.096 482.551 457.173 477.718 457.173C472.886 457.173 468.968 461.096 468.968 465.936C468.968 470.777 472.886 474.7 477.718 474.7Z" fill="#D0CDE1"/>
<path d="M220.799 396.175C227.835 396.175 233.538 390.463 233.538 383.416C233.538 376.37 227.835 370.658 220.799 370.658C213.764 370.658 208.061 376.37 208.061 383.416C208.061 390.463 213.764 396.175 220.799 396.175Z" fill="#201E1E"/>
<path d="M224.348 371.009C226.553 371.009 228.72 371.582 230.637 372.673C232.554 373.763 234.156 375.333 235.286 377.228C236.416 379.124 237.035 381.281 237.084 383.489C237.132 385.697 236.608 387.879 235.562 389.823C236.666 388.439 237.471 386.839 237.924 385.127C238.377 383.414 238.469 381.626 238.194 379.876C237.919 378.126 237.283 376.452 236.327 374.962C235.37 373.471 234.114 372.197 232.639 371.22C231.164 370.242 229.501 369.584 227.757 369.285C226.014 368.987 224.227 369.056 222.512 369.487C220.796 369.919 219.189 370.704 217.793 371.792C216.397 372.88 215.242 374.247 214.403 375.807C215.594 374.309 217.106 373.1 218.828 372.27C220.55 371.439 222.437 371.008 224.348 371.009Z" fill="#262626"/>
<path d="M196.996 383.389C217.662 383.389 234.415 366.61 234.415 345.911C234.415 325.212 217.662 308.432 196.996 308.432C176.329 308.432 159.576 325.212 159.576 345.911C159.576 366.61 176.329 383.389 196.996 383.389Z" fill="#201E1E"/>
<path d="M167.627 322.657C174.075 315.395 183.088 310.925 192.764 310.192C202.439 309.459 212.021 312.519 219.486 318.728C219.18 318.436 218.877 318.143 218.559 317.859C211.142 311.255 201.41 307.873 191.502 308.456C181.595 309.039 172.325 313.54 165.731 320.969C159.138 328.398 155.761 338.146 156.343 348.069C156.925 357.991 161.419 367.276 168.836 373.88C169.154 374.163 169.481 374.43 169.806 374.7C162.775 368.002 158.618 358.83 158.212 349.12C157.805 339.41 161.181 329.921 167.627 322.657Z" fill="#262626"/>
<path d="M196.678 383.071C209.989 383.071 220.779 372.264 220.779 358.933C220.779 345.601 209.989 334.794 196.678 334.794C183.368 334.794 172.578 345.601 172.578 358.933C172.578 372.264 183.368 383.071 196.678 383.071Z" fill="#FBD3D3"/>
<path d="M179.554 366.556C179.554 366.556 182.726 395.776 177.652 398.952C172.578 402.128 206.826 406.575 206.826 406.575C206.826 406.575 201.752 374.814 214.437 366.556L179.554 366.556Z" fill="#FBD3D3"/>
<path d="M209.997 393.871C209.997 393.871 219.441 389.454 205.84 391.027C192.239 392.6 180.504 386.565 180.504 386.565C180.504 386.565 176.383 382.436 175.749 386.883C175.115 391.33 177.652 399.588 163.699 400.858C149.746 402.128 137.061 398.317 131.987 407.846C126.914 417.374 129.45 458.664 129.45 458.664C129.45 458.664 138.964 492.966 146.575 498.048C154.185 503.13 220.779 496.142 220.779 496.142L239.806 461.84V421.821C239.806 421.821 237.269 407.846 219.511 411.657C219.511 411.657 208.095 409.116 208.729 403.399C209.363 397.682 209.997 393.871 209.997 393.871Z" fill="#F33532"/>
<path d="M149.092 522.323C149.484 520.612 149.746 519.645 149.746 519.645L149.543 518.253L147.454 504.041L146.575 498.047C154.184 494.871 156.088 480.26 156.088 480.26L156.375 480.088L157.674 479.31V479.306L162.336 476.506L162.43 476.449L164.313 477.704L168.139 480.26C173.154 484.008 178.895 486.667 184.994 488.067C191.094 489.467 197.418 489.576 203.562 488.389C206.422 487.898 209.218 487.09 211.899 485.977L221.125 482.896L221.412 482.801L221.696 482.844L227.107 483.664L227.205 483.681L227.653 483.748L226.4 492.424L224.583 505.033C229.382 507.578 233.648 512.36 237.379 518.253C238.205 519.557 239.005 520.913 239.78 522.323C240.788 524.146 241.751 526.042 242.668 527.984C242.78 528.215 242.888 528.45 242.997 528.685C243.35 529.446 243.7 530.214 244.04 530.985H147.412C147.538 530.21 147.664 529.47 147.786 528.759C147.792 528.735 147.797 528.71 147.8 528.685C147.846 528.447 147.888 528.215 147.926 527.984C148.353 525.67 148.766 523.739 149.092 522.323Z" fill="#2F2E41"/>
<path d="M145.306 400.223C145.306 400.223 152.283 412.927 149.746 428.808C147.209 444.689 157.356 484.073 157.356 484.073L164.967 482.167C164.967 482.167 159.893 449.135 161.162 441.513C162.43 433.89 162.43 404.034 156.088 400.223C149.746 396.411 145.306 400.223 145.306 400.223Z" fill="#E5E5E5"/>
<path d="M219.065 413.425L221.73 483.755L226.804 486.931C226.804 486.931 234.098 409.751 230.292 409.751H222.55C222.076 409.751 221.608 409.848 221.173 410.035C220.738 410.222 220.346 410.495 220.02 410.839C219.694 411.183 219.441 411.589 219.277 412.034C219.112 412.478 219.04 412.952 219.065 413.425Z" fill="#E5E5E5"/>
<path d="M160.845 482.485C162.596 482.485 164.016 481.063 164.016 479.308C164.016 477.554 162.596 476.132 160.845 476.132C159.093 476.132 157.674 477.554 157.674 479.308C157.674 481.063 159.093 482.485 160.845 482.485Z" fill="#262626"/>
<path d="M224.267 485.661C226.019 485.661 227.438 484.239 227.438 482.485C227.438 480.731 226.019 479.309 224.267 479.309C222.516 479.309 221.096 480.731 221.096 482.485C221.096 484.239 222.516 485.661 224.267 485.661Z" fill="#262626"/>
<path d="M176.066 328.759V352.898H181.648L188.75 345.276L187.799 352.898H212.471L210.949 345.276L213.993 352.898H217.925V328.759H176.066Z" fill="#201E1E"/>
<path d="M172.261 357.345C173.312 357.345 174.163 355.781 174.163 353.851C174.163 351.922 173.312 350.357 172.261 350.357C171.21 350.357 170.358 351.922 170.358 353.851C170.358 355.781 171.21 357.345 172.261 357.345Z" fill="#FBD3D3"/>
<path d="M221.096 357.345C222.147 357.345 222.999 355.781 222.999 353.851C222.999 351.922 222.147 350.357 221.096 350.357C220.045 350.357 219.193 351.922 219.193 353.851C219.193 355.781 220.045 357.345 221.096 357.345Z" fill="#FBD3D3"/>
<path d="M234.098 482.167C234.098 482.167 205.241 476.768 203.338 486.296C201.435 495.824 235.366 491.695 235.366 491.695L234.098 482.167Z" fill="#A0616A"/>
<path d="M233.464 416.739C233.464 416.739 302.594 472.003 289.91 485.343C277.225 498.683 229.024 494.871 229.024 494.871L232.195 478.991L260.101 475.815L246.148 461.84L233.464 463.11V416.739Z" fill="#F33532"/>
<path d="M131.353 508.847L140.232 515.834C140.232 515.834 146.575 535.526 156.088 529.809C165.601 524.092 147.209 503.765 147.209 503.765L136.427 499.953L131.353 508.847Z" fill="#A0616A"/>
<path d="M140.232 406.575L131.377 409.244C131.377 409.244 69.8332 454.852 67.2963 467.557C64.7594 480.261 79.3466 487.249 79.3466 487.249L134.524 513.293L140.232 498.048L114.229 484.708C114.229 484.708 116.132 480.897 108.521 480.261C100.91 479.626 99.6419 471.368 99.6419 471.368C99.6419 471.368 114.863 447.865 123.108 452.947C131.353 458.028 133.89 461.84 133.89 461.84L140.232 406.575Z" fill="#F33532"/>
<path d="M266.534 524.5V526.628C266.535 527.212 266.427 527.791 266.215 528.335C266.121 528.577 266.008 528.812 265.876 529.036C265.459 529.737 264.867 530.318 264.158 530.721C263.45 531.124 262.648 531.336 261.833 531.335H105.541C104.726 531.336 103.925 531.124 103.216 530.721C102.508 530.318 101.916 529.737 101.499 529.036C101.367 528.812 101.253 528.577 101.159 528.335C100.947 527.791 100.839 527.212 100.841 526.628V524.5C100.84 523.881 100.962 523.269 101.198 522.698C101.434 522.127 101.78 521.608 102.217 521.17C102.653 520.733 103.172 520.386 103.742 520.15C104.312 519.913 104.924 519.792 105.541 519.792H114.55V518.8C114.55 518.774 114.555 518.748 114.565 518.725C114.575 518.701 114.589 518.679 114.607 518.661C114.626 518.643 114.647 518.628 114.671 518.618C114.695 518.608 114.72 518.603 114.746 518.603H119.447C119.472 518.603 119.498 518.608 119.522 518.618C119.545 518.628 119.567 518.643 119.585 518.661C119.603 518.679 119.618 518.701 119.628 518.725C119.638 518.748 119.643 518.774 119.643 518.8V519.792H122.579V518.8C122.579 518.774 122.584 518.748 122.594 518.725C122.604 518.701 122.618 518.679 122.636 518.661C122.655 518.643 122.676 518.628 122.7 518.618C122.724 518.608 122.749 518.603 122.775 518.603H127.476C127.501 518.603 127.527 518.608 127.551 518.618C127.574 518.628 127.596 518.643 127.614 518.661C127.632 518.679 127.647 518.701 127.657 518.725C127.667 518.748 127.672 518.774 127.672 518.8V519.792H130.612V518.8C130.612 518.774 130.617 518.748 130.626 518.725C130.636 518.701 130.651 518.679 130.669 518.661C130.687 518.643 130.709 518.628 130.733 518.618C130.756 518.608 130.782 518.603 130.808 518.603H135.508C135.534 518.603 135.559 518.608 135.583 518.618C135.607 518.628 135.629 518.643 135.647 518.661C135.665 518.679 135.679 518.701 135.689 518.725C135.699 518.748 135.704 518.774 135.704 518.8V519.792H138.641V518.8C138.641 518.774 138.646 518.748 138.655 518.725C138.665 518.701 138.68 518.679 138.698 518.661C138.716 518.643 138.738 518.628 138.762 518.618C138.785 518.608 138.811 518.603 138.837 518.603H143.537C143.563 518.603 143.588 518.608 143.612 518.618C143.636 518.628 143.658 518.643 143.676 518.661C143.694 518.679 143.708 518.701 143.718 518.725C143.728 518.748 143.733 518.774 143.733 518.8V519.792H146.67V518.8C146.67 518.774 146.675 518.748 146.684 518.725C146.694 518.701 146.709 518.679 146.727 518.661C146.745 518.643 146.767 518.628 146.791 518.618C146.814 518.608 146.84 518.603 146.866 518.603H151.566C151.592 518.603 151.617 518.608 151.641 518.618C151.665 518.628 151.687 518.643 151.705 518.661C151.723 518.679 151.737 518.701 151.747 518.725C151.757 518.748 151.762 518.774 151.762 518.8V519.792H154.702V518.8C154.702 518.774 154.707 518.748 154.717 518.725C154.727 518.701 154.741 518.679 154.759 518.661C154.778 518.643 154.799 518.628 154.823 518.618C154.847 518.608 154.872 518.603 154.898 518.603H159.599C159.624 518.603 159.65 518.608 159.674 518.618C159.697 518.628 159.719 518.643 159.737 518.661C159.755 518.679 159.77 518.701 159.78 518.725C159.79 518.748 159.795 518.774 159.795 518.8V519.792H162.731V518.8C162.731 518.774 162.736 518.748 162.746 518.725C162.756 518.701 162.77 518.679 162.788 518.661C162.807 518.643 162.828 518.628 162.852 518.618C162.876 518.608 162.901 518.603 162.927 518.603H199.747C199.773 518.603 199.798 518.608 199.822 518.618C199.846 518.628 199.868 518.643 199.886 518.661C199.904 518.679 199.918 518.701 199.928 518.725C199.938 518.748 199.943 518.774 199.943 518.8V519.792H202.883V518.8C202.883 518.774 202.888 518.748 202.898 518.725C202.908 518.701 202.922 518.679 202.94 518.661C202.959 518.643 202.98 518.628 203.004 518.618C203.028 518.608 203.053 518.603 203.079 518.603H207.78C207.831 518.604 207.881 518.625 207.918 518.661C207.954 518.698 207.975 518.748 207.976 518.8V519.792H210.912V518.8C210.912 518.774 210.917 518.748 210.927 518.725C210.937 518.701 210.951 518.679 210.969 518.661C210.988 518.643 211.009 518.628 211.033 518.618C211.057 518.608 211.082 518.603 211.108 518.603H215.809C215.834 518.603 215.86 518.608 215.884 518.618C215.907 518.628 215.929 518.643 215.947 518.661C215.965 518.679 215.98 518.701 215.99 518.725C216 518.748 216.005 518.774 216.005 518.8V519.792H218.941V518.8C218.941 518.774 218.946 518.748 218.956 518.725C218.966 518.701 218.98 518.679 218.998 518.661C219.017 518.643 219.038 518.628 219.062 518.618C219.086 518.608 219.111 518.603 219.137 518.603H223.838C223.863 518.603 223.889 518.608 223.913 518.618C223.936 518.628 223.958 518.643 223.976 518.661C223.994 518.679 224.009 518.701 224.019 518.725C224.029 518.748 224.034 518.774 224.034 518.8V519.792H226.974V518.8C226.973 518.774 226.979 518.748 226.988 518.725C226.998 518.701 227.013 518.679 227.031 518.661C227.049 518.643 227.071 518.628 227.094 518.618C227.118 518.608 227.144 518.603 227.17 518.603H231.87C231.921 518.604 231.971 518.625 232.007 518.662C232.043 518.699 232.063 518.748 232.063 518.8V519.792H235.003V518.8C235.002 518.774 235.008 518.748 235.017 518.725C235.027 518.701 235.042 518.679 235.06 518.661C235.078 518.643 235.1 518.628 235.123 518.618C235.147 518.608 235.173 518.603 235.199 518.603H239.899C239.925 518.603 239.95 518.608 239.974 518.618C239.998 518.628 240.02 518.643 240.038 518.661C240.056 518.679 240.07 518.701 240.08 518.725C240.09 518.748 240.095 518.774 240.095 518.8V519.792H243.032V518.8C243.031 518.774 243.037 518.748 243.046 518.725C243.056 518.701 243.071 518.679 243.089 518.661C243.107 518.643 243.129 518.628 243.152 518.618C243.176 518.608 243.202 518.603 243.228 518.603H247.928C247.954 518.603 247.979 518.608 248.003 518.618C248.027 518.628 248.049 518.643 248.067 518.661C248.085 518.679 248.099 518.701 248.109 518.725C248.119 518.748 248.124 518.774 248.124 518.8V519.792H261.834C262.451 519.792 263.062 519.913 263.633 520.15C264.203 520.386 264.721 520.733 265.158 521.17C265.594 521.608 265.94 522.127 266.177 522.698C266.413 523.269 266.534 523.881 266.534 524.5Z" fill="#201E1E"/>
<path d="M253.949 434.887H195.694V433.684H169.279V434.887H110.784C109.739 434.887 108.736 435.302 107.997 436.043C107.258 436.783 106.843 437.787 106.843 438.833V518.728C106.843 519.775 107.258 520.779 107.997 521.519C108.736 522.259 109.739 522.675 110.784 522.675H253.949C254.994 522.675 255.996 522.259 256.735 521.519C257.474 520.779 257.889 519.775 257.889 518.728V438.833C257.889 437.787 257.474 436.783 256.735 436.043C255.996 435.302 254.994 434.887 253.949 434.887Z" fill="#262626"/>
<path d="M182.481 471.544C187.313 471.544 191.231 467.62 191.231 462.78C191.231 457.94 187.313 454.016 182.481 454.016C177.648 454.016 173.731 457.94 173.731 462.78C173.731 467.62 177.648 471.544 182.481 471.544Z" stroke="#D0CDE1" stroke-width="2" stroke-miterlimit="10"/>
<path d="M179.681 474.699C184.513 474.699 188.431 470.775 188.431 465.935C188.431 461.095 184.513 457.171 179.681 457.171C174.848 457.171 170.931 461.095 170.931 465.935C170.931 470.775 174.848 474.699 179.681 474.699Z" fill="#D0CDE1"/>
<path d="M591 528.719H73.4532V529.81H591V528.719Z" fill="#201E1E"/>
</svg>
